<svg xmlns="http://www.w3.org/2000/svg" width="48" height="48" viewBox="0 0 48 48">
  <defs>
    <linearGradient id="mainGrad48" x1="0%" y1="0%" x2="100%" y2="100%">
      <stop offset="0%" style="stop-color:#667eea;stop-opacity:1" />
      <stop offset="50%" style="stop-color:#764ba2;stop-opacity:1" />
      <stop offset="100%" style="stop-color:#f093fb;stop-opacity:1" />
    </linearGradient>
    <linearGradient id="innerGlow48" x1="0%" y1="0%" x2="100%" y2="100%">
      <stop offset="0%" style="stop-color:rgba(255,255,255,0.3);stop-opacity:1" />
      <stop offset="100%" style="stop-color:rgba(255,255,255,0.1);stop-opacity:1" />
    </linearGradient>
    <linearGradient id="textGrad48" x1="0%" y1="0%" x2="100%" y2="100%">
      <stop offset="0%" style="stop-color:#ffffff;stop-opacity:1" />
      <stop offset="100%" style="stop-color:#f0f8ff;stop-opacity:1" />
    </linearGradient>
  </defs>
  
  <rect width="48" height="48" rx="9" fill="url(#mainGrad48)"/>
  <rect x="3" y="3" width="42" height="42" rx="7" fill="url(#innerGlow48)" opacity="0.4"/>
  
  <!-- Simplified document -->
  <rect x="12" y="10" width="14" height="18" rx="2" fill="rgba(255,255,255,0.15)" stroke="rgba(255,255,255,0.3)" stroke-width="0.8"/>
  <line x1="14" y1="14" x2="24" y2="14" stroke="rgba(255,255,255,0.4)" stroke-width="1" stroke-linecap="round"/>
  <line x1="14" y1="17" x2="22" y2="17" stroke="rgba(255,255,255,0.4)" stroke-width="1" stroke-linecap="round"/>
  <line x1="14" y1="20" x2="23" y2="20" stroke="rgba(255,255,255,0.4)" stroke-width="1" stroke-linecap="round"/>
  <line x1="14" y1="23" x2="21" y2="23" stroke="rgba(255,255,255,0.4)" stroke-width="1" stroke-linecap="round"/>
  
  <!-- Arrow -->
  <path d="M 28 17 L 34 19 L 28 21" fill="none" stroke="url(#textGrad48)" stroke-width="1.5" stroke-linecap="round" stroke-linejoin="round"/>
  
  <!-- Improved document -->
  <rect x="36" y="9" width="10" height="20" rx="2" fill="rgba(255,255,255,0.25)" stroke="rgba(255,255,255,0.5)" stroke-width="0.8"/>
  <line x1="38" y1="13" x2="44" y2="13" stroke="rgba(255,255,255,0.7)" stroke-width="1" stroke-linecap="round"/>
  <line x1="38" y1="16" x2="43" y2="16" stroke="rgba(255,255,255,0.7)" stroke-width="1" stroke-linecap="round"/>
  <line x1="38" y1="19" x2="44" y2="19" stroke="rgba(255,255,255,0.7)" stroke-width="1" stroke-linecap="round"/>
  <line x1="38" y1="22" x2="43" y2="22" stroke="rgba(255,255,255,0.7)" stroke-width="1" stroke-linecap="round"/>
  <line x1="38" y1="25" x2="44" y2="25" stroke="rgba(255,255,255,0.7)" stroke-width="1" stroke-linecap="round"/>
  
  <!-- Main star -->
  <g transform="translate(24, 36)">
    <path d="M 0,-3 L 1,-1 L 3,0 L 1,1 L 0,3 L -1,1 L -3,0 L -1,-1 Z" fill="url(#textGrad48)" stroke="rgba(255,255,255,0.8)" stroke-width="0.3"/>
  </g>
  
  <!-- Small sparkles -->
  <circle cx="17" cy="7" r="0.8" fill="rgba(255,255,255,0.8)"/>
  <circle cx="30" cy="11" r="0.6" fill="rgba(255,255,255,0.9)"/>
  <circle cx="40" cy="6" r="0.6" fill="rgba(255,255,255,0.8)"/>
  <circle cx="8" cy="30" r="0.8" fill="rgba(255,255,255,0.6)"/>
  <circle cx="40" cy="35" r="0.5" fill="rgba(255,255,255,0.7)"/>
</svg>
