<svg xmlns="http://www.w3.org/2000/svg" width="32" height="32" viewBox="0 0 32 32">
  <defs>
    <linearGradient id="mainGrad32" x1="0%" y1="0%" x2="100%" y2="100%">
      <stop offset="0%" style="stop-color:#667eea;stop-opacity:1" />
      <stop offset="50%" style="stop-color:#764ba2;stop-opacity:1" />
      <stop offset="100%" style="stop-color:#f093fb;stop-opacity:1" />
    </linearGradient>
    <linearGradient id="textGrad32" x1="0%" y1="0%" x2="100%" y2="100%">
      <stop offset="0%" style="stop-color:#ffffff;stop-opacity:1" />
      <stop offset="100%" style="stop-color:#f0f8ff;stop-opacity:1" />
    </linearGradient>
  </defs>
  
  <rect width="32" height="32" rx="6" fill="url(#mainGrad32)"/>
  <rect x="2" y="2" width="28" height="28" rx="5" fill="rgba(255,255,255,0.2)" opacity="0.4"/>
  
  <!-- Simple document -->
  <rect x="8" y="7" width="9" height="12" rx="1" fill="rgba(255,255,255,0.15)" stroke="rgba(255,255,255,0.3)" stroke-width="0.5"/>
  <line x1="9" y1="9" x2="16" y2="9" stroke="rgba(255,255,255,0.4)" stroke-width="0.8" stroke-linecap="round"/>
  <line x1="9" y1="11" x2="15" y2="11" stroke="rgba(255,255,255,0.4)" stroke-width="0.8" stroke-linecap="round"/>
  <line x1="9" y1="13" x2="16" y2="13" stroke="rgba(255,255,255,0.4)" stroke-width="0.8" stroke-linecap="round"/>
  <line x1="9" y1="15" x2="14" y2="15" stroke="rgba(255,255,255,0.4)" stroke-width="0.8" stroke-linecap="round"/>
  
  <!-- Arrow -->
  <path d="M 18 12 L 22 13 L 18 14" fill="none" stroke="url(#textGrad32)" stroke-width="1" stroke-linecap="round" stroke-linejoin="round"/>
  
  <!-- Improved document -->
  <rect x="23" y="6" width="7" height="14" rx="1" fill="rgba(255,255,255,0.25)" stroke="rgba(255,255,255,0.5)" stroke-width="0.5"/>
  <line x1="24" y1="9" x2="29" y2="9" stroke="rgba(255,255,255,0.7)" stroke-width="0.8" stroke-linecap="round"/>
  <line x1="24" y1="11" x2="28" y2="11" stroke="rgba(255,255,255,0.7)" stroke-width="0.8" stroke-linecap="round"/>
  <line x1="24" y1="13" x2="29" y2="13" stroke="rgba(255,255,255,0.7)" stroke-width="0.8" stroke-linecap="round"/>
  <line x1="24" y1="15" x2="28" y2="15" stroke="rgba(255,255,255,0.7)" stroke-width="0.8" stroke-linecap="round"/>
  <line x1="24" y1="17" x2="29" y2="17" stroke="rgba(255,255,255,0.7)" stroke-width="0.8" stroke-linecap="round"/>
  
  <!-- Main star -->
  <g transform="translate(16, 24)">
    <path d="M 0,-2 L 0.7,-0.7 L 2,0 L 0.7,0.7 L 0,2 L -0.7,0.7 L -2,0 L -0.7,-0.7 Z" fill="url(#textGrad32)" stroke="rgba(255,255,255,0.8)" stroke-width="0.2"/>
  </g>
  
  <!-- Small sparkles -->
  <circle cx="11" cy="5" r="0.5" fill="rgba(255,255,255,0.8)"/>
  <circle cx="20" cy="8" r="0.4" fill="rgba(255,255,255,0.9)"/>
  <circle cx="27" cy="4" r="0.4" fill="rgba(255,255,255,0.8)"/>
  <circle cx="6" cy="20" r="0.5" fill="rgba(255,255,255,0.6)"/>
  <circle cx="26" cy="23" r="0.3" fill="rgba(255,255,255,0.7)"/>
</svg>="http://www.w3.org/2000/svg" width="32" height="32" viewBox="0 0 32 32">
  <defs>
    <linearGradient id="grad1" x1="0%" y1="0%" x2="100%" y2="100%">
      <stop offset="0%" style="stop-color:#667eea;stop-opacity:1" />
      <stop offset="100%" style="stop-color:#764ba2;stop-opacity:1" />
    </linearGradient>
  </defs>
  <rect width="32" height="32" rx="6" fill="url(#grad1)"/>
  <text x="16" y="22" text-anchor="middle" fill="white" font-size="16" font-family="Arial">✨</text>
</svg>
