<<svg xmlns="http://www.w3.org/2000/svg" width="16" height="16" viewBox="0 0 16 16">
  <defs>
    <linearGradient id="mainGrad16" x1="0%" y1="0%" x2="100%" y2="100%">
      <stop offset="0%" style="stop-color:#667eea;stop-opacity:1" />
      <stop offset="50%" style="stop-color:#764ba2;stop-opacity:1" />
      <stop offset="100%" style="stop-color:#f093fb;stop-opacity:1" />
    </linearGradient>
    <linearGradient id="textGrad16" x1="0%" y1="0%" x2="100%" y2="100%">
      <stop offset="0%" style="stop-color:#ffffff;stop-opacity:1" />
      <stop offset="100%" style="stop-color:#f0f8ff;stop-opacity:1" />
    </linearGradient>
  </defs>
  
  <rect width="16" height="16" rx="3" fill="url(#mainGrad16)"/>
  <rect x="1" y="1" width="14" height="14" rx="2" fill="rgba(255,255,255,0.2)" opacity="0.3"/>
  
  <!-- Very simple document -->
  <rect x="4" y="3" width="4" height="6" rx="0.5" fill="rgba(255,255,255,0.15)" stroke="rgba(255,255,255,0.3)" stroke-width="0.3"/>
  <line x1="4.5" y1="4.5" x2="7.5" y2="4.5" stroke="rgba(255,255,255,0.4)" stroke-width="0.4" stroke-linecap="round"/>
  <line x1="4.5" y1="5.5" x2="7" y2="5.5" stroke="rgba(255,255,255,0.4)" stroke-width="0.4" stroke-linecap="round"/>
  <line x1="4.5" y1="6.5" x2="7.5" y2="6.5" stroke="rgba(255,255,255,0.4)" stroke-width="0.4" stroke-linecap="round"/>
  <line x1="4.5" y1="7.5" x2="6.5" y2="7.5" stroke="rgba(255,255,255,0.4)" stroke-width="0.4" stroke-linecap="round"/>
  
  <!-- Arrow -->
  <path d="M 9 6 L 11 6.5 L 9 7" fill="none" stroke="url(#textGrad16)" stroke-width="0.6" stroke-linecap="round" stroke-linejoin="round"/>
  
  <!-- Improved document -->
  <rect x="11.5" y="2.5" width="3" height="7" rx="0.5" fill="rgba(255,255,255,0.25)" stroke="rgba(255,255,255,0.5)" stroke-width="0.3"/>
  <line x1="12" y1="4" x2="14" y2="4" stroke="rgba(255,255,255,0.7)" stroke-width="0.4" stroke-linecap="round"/>
  <line x1="12" y1="5" x2="13.5" y2="5" stroke="rgba(255,255,255,0.7)" stroke-width="0.4" stroke-linecap="round"/>
  <line x1="12" y1="6" x2="14" y2="6" stroke="rgba(255,255,255,0.7)" stroke-width="0.4" stroke-linecap="round"/>
  <line x1="12" y1="7" x2="13.5" y2="7" stroke="rgba(255,255,255,0.7)" stroke-width="0.4" stroke-linecap="round"/>
  <line x1="12" y1="8" x2="14" y2="8" stroke="rgba(255,255,255,0.7)" stroke-width="0.4" stroke-linecap="round"/>
  
  <!-- Main star -->
  <g transform="translate(8, 12)">
    <path d="M 0,-1 L 0.35,-0.35 L 1,0 L 0.35,0.35 L 0,1 L -0.35,0.35 L -1,0 L -0.35,-0.35 Z" fill="url(#textGrad16)" stroke="rgba(255,255,255,0.8)" stroke-width="0.1"/>
  </g>
  
  <!-- Tiny sparkles -->
  <circle cx="5.5" cy="2" r="0.3" fill="rgba(255,255,255,0.8)"/>
  <circle cx="10" cy="3.5" r="0.25" fill="rgba(255,255,255,0.9)"/>
  <circle cx="13" cy="1.5" r="0.25" fill="rgba(255,255,255,0.8)"/>
  <circle cx="3" cy="10" r="0.3" fill="rgba(255,255,255,0.6)"/>
  <circle cx="13" cy="11" r="0.2" fill="rgba(255,255,255,0.7)"/>
</svg> SVG icon for 16x16 -->
<svg xmlns="http://www.w3.org/2000/svg" width="16" height="16" viewBox="0 0 16 16">
  <defs>
    <linearGradient id="grad1" x1="0%" y1="0%" x2="100%" y2="100%">
      <stop offset="0%" style="stop-color:#667eea;stop-opacity:1" />
      <stop offset="100%" style="stop-color:#764ba2;stop-opacity:1" />
    </linearGradient>
  </defs>
  <circle cx="8" cy="8" r="6" fill="url(#grad1)"/>
  <text x="8" y="11" text-anchor="middle" fill="white" font-size="8" font-family="Arial">✨</text>
</svg>
