<svg xmlns="http://www.w3.org/2000/svg" width="128" height="128" viewBox="0 0 128 128">
  <defs>
    <!-- Main gradient background -->
    <linearGradient id="mainGrad" x1="0%" y1="0%" x2="100%" y2="100%">
      <stop offset="0%" style="stop-color:#667eea;stop-opacity:1" />
      <stop offset="50%" style="stop-color:#764ba2;stop-opacity:1" />
      <stop offset="100%" style="stop-color:#f093fb;stop-opacity:1" />
    </linearGradient>
    
    <!-- Inner glow -->
    <linearGradient id="innerGlow" x1="0%" y1="0%" x2="100%" y2="100%">
      <stop offset="0%" style="stop-color:rgba(255,255,255,0.3);stop-opacity:1" />
      <stop offset="100%" style="stop-color:rgba(255,255,255,0.1);stop-opacity:1" />
    </linearGradient>
    
    <!-- Text gradient -->
    <linearGradient id="textGrad" x1="0%" y1="0%" x2="100%" y2="100%">
      <stop offset="0%" style="stop-color:#ffffff;stop-opacity:1" />
      <stop offset="100%" style="stop-color:#f0f8ff;stop-opacity:1" />
    </linearGradient>
    
    <!-- Drop shadow filter -->
    <filter id="dropshadow" x="-20%" y="-20%" width="140%" height="140%">
      <feDropShadow dx="0" dy="4" stdDeviation="6" flood-color="rgba(0,0,0,0.3)"/>
    </filter>
  </defs>
  
  <!-- Background with rounded corners -->
  <rect width="128" height="128" rx="24" fill="url(#mainGrad)" filter="url(#dropshadow)"/>
  
  <!-- Inner light reflection -->
  <rect x="8" y="8" width="112" height="112" rx="18" fill="url(#innerGlow)" opacity="0.4"/>
  
  <!-- Main icon elements -->
  <!-- Document/text representation -->
  <rect x="32" y="28" width="36" height="48" rx="4" fill="rgba(255,255,255,0.15)" stroke="rgba(255,255,255,0.3)" stroke-width="1.5"/>
  <line x1="38" y1="38" x2="62" y2="38" stroke="rgba(255,255,255,0.4)" stroke-width="2" stroke-linecap="round"/>
  <line x1="38" y1="46" x2="58" y2="46" stroke="rgba(255,255,255,0.4)" stroke-width="2" stroke-linecap="round"/>
  <line x1="38" y1="54" x2="60" y2="54" stroke="rgba(255,255,255,0.4)" stroke-width="2" stroke-linecap="round"/>
  <line x1="38" y1="62" x2="56" y2="62" stroke="rgba(255,255,255,0.4)" stroke-width="2" stroke-linecap="round"/>
  
  <!-- Arrow showing transformation -->
  <path d="M 75 45 L 90 52 L 75 59" fill="none" stroke="url(#textGrad)" stroke-width="3" stroke-linecap="round" stroke-linejoin="round"/>
  
  <!-- Improved document -->
  <rect x="95" y="25" width="28" height="54" rx="4" fill="rgba(255,255,255,0.25)" stroke="rgba(255,255,255,0.5)" stroke-width="1.5"/>
  <line x1="100" y1="35" x2="118" y2="35" stroke="rgba(255,255,255,0.7)" stroke-width="2" stroke-linecap="round"/>
  <line x1="100" y1="42" x2="115" y2="42" stroke="rgba(255,255,255,0.7)" stroke-width="2" stroke-linecap="round"/>
  <line x1="100" y1="49" x2="117" y2="49" stroke="rgba(255,255,255,0.7)" stroke-width="2" stroke-linecap="round"/>
  <line x1="100" y1="56" x2="114" y2="56" stroke="rgba(255,255,255,0.7)" stroke-width="2" stroke-linecap="round"/>
  <line x1="100" y1="63" x2="116" y2="63" stroke="rgba(255,255,255,0.7)" stroke-width="2" stroke-linecap="round"/>
  <line x1="100" y1="70" x2="112" y2="70" stroke="rgba(255,255,255,0.7)" stroke-width="2" stroke-linecap="round"/>
  
  <!-- Sparkle effects -->
  <circle cx="45" cy="20" r="2" fill="rgba(255,255,255,0.8)"/>
  <circle cx="80" cy="30" r="1.5" fill="rgba(255,255,255,0.9)"/>
  <circle cx="25" cy="45" r="1" fill="rgba(255,255,255,0.7)"/>
  <circle cx="110" cy="15" r="1.5" fill="rgba(255,255,255,0.8)"/>
  <circle cx="20" cy="80" r="2" fill="rgba(255,255,255,0.6)"/>
  <circle cx="108" cy="95" r="1" fill="rgba(255,255,255,0.7)"/>
  
  <!-- Magic wand/star symbol -->
  <g transform="translate(64, 95)">
    <path d="M 0,-8 L 2,-2 L 8,0 L 2,2 L 0,8 L -2,2 L -8,0 L -2,-2 Z" fill="url(#textGrad)" stroke="rgba(255,255,255,0.8)" stroke-width="0.5"/>
  </g>
  
  <!-- Additional small stars -->
  <g transform="translate(25, 25) scale(0.5)">
    <path d="M 0,-6 L 1.5,-1.5 L 6,0 L 1.5,1.5 L 0,6 L -1.5,1.5 L -6,0 L -1.5,-1.5 Z" fill="rgba(255,255,255,0.6)"/>
  </g>
  <g transform="translate(103, 110) scale(0.4)">
    <path d="M 0,-6 L 1.5,-1.5 L 6,0 L 1.5,1.5 L 0,6 L -1.5,1.5 L -6,0 L -1.5,-1.5 Z" fill="rgba(255,255,255,0.5)"/>
  </g>
</svg>
